<mxfile host="app.diagrams.net" modified="2022-07-12T02:42:11.016Z" agent="5.0 (Windows NT 10.0; Win64; x64) AppleWebKit/537.36 (KHTML, like Gecko) Chrome/103.0.0.0 Safari/537.36" etag="RPkXKKADxjXbYPTa0h5i" version="20.0.4" type="github">
  <diagram id="gCbxEYQgM5Y29MNaQwxz" name="Page-1">
    <mxGraphModel dx="1422" dy="762" grid="1" gridSize="10" guides="1" tooltips="1" connect="1" arrows="1" fold="1" page="1" pageScale="1" pageWidth="827" pageHeight="1169" math="0" shadow="0">
      <root>
        <mxCell id="0" />
        <mxCell id="1" parent="0" />
        <mxCell id="nefhBKobk2yNYBQCuIoo-1" value="&lt;font style=&quot;font-size: 18px;&quot;&gt;升降台控制系统&lt;/font&gt;" style="text;html=1;strokeColor=none;fillColor=none;align=center;verticalAlign=middle;whiteSpace=wrap;rounded=0;" parent="1" vertex="1">
          <mxGeometry x="309" y="50" width="210" height="50" as="geometry" />
        </mxCell>
        <mxCell id="nefhBKobk2yNYBQCuIoo-3" value="&lt;font style=&quot;font-size: 18px;&quot;&gt;无线&lt;/font&gt;" style="text;html=1;strokeColor=none;fillColor=none;align=center;verticalAlign=middle;whiteSpace=wrap;rounded=0;" parent="1" vertex="1">
          <mxGeometry x="99" y="110" width="210" height="50" as="geometry" />
        </mxCell>
        <mxCell id="nefhBKobk2yNYBQCuIoo-4" value="&lt;font style=&quot;font-size: 18px;&quot;&gt;有线&lt;br&gt;&lt;/font&gt;" style="text;html=1;strokeColor=none;fillColor=none;align=center;verticalAlign=middle;whiteSpace=wrap;rounded=0;" parent="1" vertex="1">
          <mxGeometry x="519" y="110" width="210" height="50" as="geometry" />
        </mxCell>
        <mxCell id="nefhBKobk2yNYBQCuIoo-5" value="户外电源价格较贵，不安全" style="text;html=1;strokeColor=none;fillColor=none;align=center;verticalAlign=middle;whiteSpace=wrap;rounded=0;fontSize=18;" parent="1" vertex="1">
          <mxGeometry x="79" y="160" width="250" height="30" as="geometry" />
        </mxCell>
        <mxCell id="nefhBKobk2yNYBQCuIoo-6" value="部分无线没有任何意义" style="text;html=1;strokeColor=none;fillColor=none;align=center;verticalAlign=middle;whiteSpace=wrap;rounded=0;fontSize=18;" parent="1" vertex="1">
          <mxGeometry x="499" y="160" width="250" height="30" as="geometry" />
        </mxCell>
        <mxCell id="NtFqo2GscR6JvLDcM4IP-1" value="" style="endArrow=none;html=1;rounded=0;" edge="1" parent="1">
          <mxGeometry width="50" height="50" relative="1" as="geometry">
            <mxPoint y="240" as="sourcePoint" />
            <mxPoint x="830" y="240" as="targetPoint" />
          </mxGeometry>
        </mxCell>
        <mxCell id="NtFqo2GscR6JvLDcM4IP-3" value="升降台" style="rounded=1;whiteSpace=wrap;html=1;" vertex="1" parent="1">
          <mxGeometry x="110" y="350" width="40" height="530" as="geometry" />
        </mxCell>
        <mxCell id="NtFqo2GscR6JvLDcM4IP-8" value="" style="endArrow=none;html=1;rounded=0;fontFamily=Helvetica;exitX=1.025;exitY=0.025;exitDx=0;exitDy=0;exitPerimeter=0;" edge="1" parent="1" source="NtFqo2GscR6JvLDcM4IP-3">
          <mxGeometry width="50" height="50" relative="1" as="geometry">
            <mxPoint x="170" y="370" as="sourcePoint" />
            <mxPoint x="170" y="363" as="targetPoint" />
          </mxGeometry>
        </mxCell>
        <mxCell id="NtFqo2GscR6JvLDcM4IP-9" value="" style="endArrow=none;html=1;rounded=0;fontFamily=Helvetica;exitX=1.075;exitY=0.962;exitDx=0;exitDy=0;exitPerimeter=0;" edge="1" parent="1" source="NtFqo2GscR6JvLDcM4IP-3">
          <mxGeometry width="50" height="50" relative="1" as="geometry">
            <mxPoint x="161" y="373.25" as="sourcePoint" />
            <mxPoint x="170" y="860" as="targetPoint" />
          </mxGeometry>
        </mxCell>
        <mxCell id="NtFqo2GscR6JvLDcM4IP-10" value="上限位&lt;br&gt;" style="text;html=1;strokeColor=none;fillColor=none;align=center;verticalAlign=middle;whiteSpace=wrap;rounded=0;fontFamily=Helvetica;" vertex="1" parent="1">
          <mxGeometry x="174" y="350" width="60" height="30" as="geometry" />
        </mxCell>
        <mxCell id="NtFqo2GscR6JvLDcM4IP-11" value="下限位&lt;br&gt;" style="text;html=1;strokeColor=none;fillColor=none;align=center;verticalAlign=middle;whiteSpace=wrap;rounded=0;fontFamily=Helvetica;" vertex="1" parent="1">
          <mxGeometry x="174" y="850" width="60" height="30" as="geometry" />
        </mxCell>
        <mxCell id="NtFqo2GscR6JvLDcM4IP-12" value="" style="endArrow=none;html=1;rounded=0;fontFamily=Helvetica;" edge="1" parent="1">
          <mxGeometry width="50" height="50" relative="1" as="geometry">
            <mxPoint x="150" y="590" as="sourcePoint" />
            <mxPoint x="170" y="590" as="targetPoint" />
          </mxGeometry>
        </mxCell>
        <mxCell id="NtFqo2GscR6JvLDcM4IP-13" value="校准点" style="text;html=1;strokeColor=none;fillColor=none;align=center;verticalAlign=middle;whiteSpace=wrap;rounded=0;fontFamily=Helvetica;" vertex="1" parent="1">
          <mxGeometry x="174" y="580" width="60" height="30" as="geometry" />
        </mxCell>
      </root>
    </mxGraphModel>
  </diagram>
</mxfile>
